<svg width="24" height="24" viewBox="0 0 24 24" fill="none" xmlns="http://www.w3.org/2000/svg">
<path d="M18.7724 14H9.61163L9.81616 15H18.2042C18.6855 15 19.0422 15.4469 18.9356 15.9162L18.7632 16.6748C19.3473 16.9584 19.75 17.5571 19.75 18.25C19.75 19.2251 18.9525 20.0139 17.9743 19.9998C17.0423 19.9864 16.2758 19.2301 16.2507 18.2983C16.2369 17.7894 16.4408 17.3281 16.7758 17H10.2243C10.5485 17.3177 10.75 17.7602 10.75 18.25C10.75 19.2442 9.921 20.0447 8.91656 19.9981C8.02469 19.9567 7.29934 19.236 7.25247 18.3444C7.21628 17.6558 7.5786 17.0489 8.12906 16.7323L5.93384 6H3.75C3.33578 6 3 5.66422 3 5.25V4.75C3 4.33578 3.33578 4 3.75 4H6.95403C7.31031 4 7.61741 4.25066 7.68881 4.59969L7.97525 6H20.2497C20.731 6 21.0877 6.44691 20.981 6.91622L19.5038 13.4162C19.4262 13.7577 19.1226 14 18.7724 14Z" fill="#73777D"/>
</svg>
