<svg width="24" height="24" viewBox="0 0 24 24" fill="none" xmlns="http://www.w3.org/2000/svg">
<path d="M9.12062 21C7.12614 14.4066 11.3404 11.9992 11.3404 11.9992C11.0456 15.5175 13.0385 18.2585 13.0385 18.2585C13.7715 18.0366 15.1705 16.9997 15.1705 16.9997C15.1705 18.2585 14.4323 20.9984 14.4323 20.9984C14.4323 20.9984 17.0165 18.9938 17.83 15.6644C18.6424 12.3349 16.2825 8.99231 16.2825 8.99231C16.4247 11.3488 15.63 13.6666 14.0731 15.4372C14.151 15.347 14.2164 15.2469 14.2665 15.1383C14.5462 14.5771 14.9953 13.1185 14.7324 9.74076C14.3622 4.99936 10.08 3 10.08 3C10.4491 5.8889 9.34229 6.55447 6.74972 12.038C4.15716 17.5205 9.12062 21 9.12062 21Z" fill="#16181B"/>
</svg>
